<svg width="24" height="24" viewBox="0 0 24 24" fill="none" xmlns="http://www.w3.org/2000/svg">
<path fill-rule="evenodd" clip-rule="evenodd" d="M4.16146 2H19.8385C20.3657 1.99998 20.8205 1.99997 21.195 2.03057C21.5904 2.06287 21.9836 2.13419 22.362 2.32698C22.9265 2.6146 23.3854 3.07354 23.673 3.63803C23.8658 4.01641 23.9371 4.40963 23.9694 4.80497C24 5.17954 24 5.63429 24 6.16143V19.8386C24 20.3657 24 20.8205 23.9694 21.195C23.9371 21.5904 23.8658 21.9836 23.673 22.362C23.3854 22.9265 22.9265 23.3854 22.362 23.673C21.9836 23.8658 21.5904 23.9371 21.195 23.9694C20.8205 24 20.3657 24 19.8386 24H4.16144C3.6343 24 3.17954 24 2.80497 23.9694C2.40963 23.9371 2.01641 23.8658 1.63803 23.673C1.07354 23.3854 0.614602 22.9265 0.326982 22.362C0.134188 21.9836 0.0628723 21.5904 0.0305712 21.195C-3.25181e-05 20.8205 -1.70213e-05 20.3657 8.6011e-07 19.8385V6.16146C-1.70213e-05 5.63431 -3.25181e-05 5.17954 0.0305712 4.80497C0.0628723 4.40963 0.134188 4.01641 0.326982 3.63803C0.614602 3.07354 1.07354 2.6146 1.63803 2.32698C2.01641 2.13419 2.40963 2.06287 2.80497 2.03057C3.17955 1.99997 3.63431 1.99998 4.16146 2ZM2.96784 4.02393C2.69617 4.04612 2.59546 4.0838 2.54601 4.10899C2.35785 4.20487 2.20487 4.35785 2.109 4.54601C2.0838 4.59545 2.04612 4.69617 2.02393 4.96784C2.00078 5.25117 2 5.62345 2 6.2V19.8C2 20.3766 2.00078 20.7488 2.02393 21.0322C2.04612 21.3038 2.0838 21.4045 2.109 21.454C2.20487 21.6422 2.35785 21.7951 2.54601 21.891C2.59546 21.9162 2.69617 21.9539 2.96784 21.9761C3.25118 21.9992 3.62345 22 4.2 22H19.8C20.3766 22 20.7488 21.9992 21.0322 21.9761C21.3038 21.9539 21.4045 21.9162 21.454 21.891C21.6422 21.7951 21.7951 21.6422 21.891 21.454C21.9162 21.4045 21.9539 21.3038 21.9761 21.0322C21.9992 20.7488 22 20.3766 22 19.8V6.2C22 5.62345 21.9992 5.25117 21.9761 4.96784C21.9539 4.69617 21.9162 4.59545 21.891 4.54601C21.7951 4.35785 21.6422 4.20487 21.454 4.10899C21.4045 4.0838 21.3038 4.04612 21.0322 4.02393C20.7488 4.00078 20.3766 4 19.8 4H4.2C3.62345 4 3.25118 4.00078 2.96784 4.02393Z" fill="#CC0200"/>
<path d="M4 1C4 0.447715 4.44772 0 5 0C5.55229 0 6 0.447715 6 1V5C6 5.55228 5.55229 6 5 6C4.44772 6 4 5.55228 4 5V1Z" fill="#CC0200"/>
<path d="M18 1C18 0.447715 18.4477 0 19 0C19.5523 0 20 0.447715 20 1V5C20 5.55228 19.5523 6 19 6C18.4477 6 18 5.55228 18 5V1Z" fill="#CC0200"/>
<path d="M14 12C14 13.1046 13.1046 14 12 14C10.8954 14 10 13.1046 10 12C10 10.8954 10.8954 10 12 10C13.1046 10 14 10.8954 14 12Z" fill="#CC0200"/>
<path d="M20 12C20 13.1046 19.1046 14 18 14C16.8954 14 16 13.1046 16 12C16 10.8954 16.8954 10 18 10C19.1046 10 20 10.8954 20 12Z" fill="#CC0200"/>
<path d="M8 18C8 19.1046 7.10457 20 6 20C4.89543 20 4 19.1046 4 18C4 16.8954 4.89543 16 6 16C7.10457 16 8 16.8954 8 18Z" fill="#CC0200"/>
<path d="M14 18C14 19.1046 13.1046 20 12 20C10.8954 20 10 19.1046 10 18C10 16.8954 10.8954 16 12 16C13.1046 16 14 16.8954 14 18Z" fill="#CC0200"/>
</svg>
