<svg width="46" height="42" viewBox="0 0 46 42" fill="none" xmlns="http://www.w3.org/2000/svg">
<path d="M14.8703 27.0655L14.9296 30.9914C14.9545 32.5765 13.6898 33.8775 12.1064 33.9021C10.5054 33.9273 9.2187 32.6373 9.19576 31.0783C9.19576 31.0783 9.19576 31.0783 9.19576 31.0782L9.09405 24.3648C6.78594 24.0058 4.98201 22.0254 4.94519 19.5924C4.90318 16.8819 7.07323 14.6537 9.77552 14.6132L16.4076 14.5126L29.6295 8.97139C30.2902 8.61861 31.0679 8.62513 31.7234 8.99041L31.724 8.99078L14.8703 27.0655ZM14.8703 27.0655L16.7581 27.0368L16.7582 27.0368C17.216 27.0295 17.5817 26.653 17.5747 26.195C17.5747 26.195 17.5747 26.195 17.5747 26.195L17.5511 24.6384C18.1307 24.8272 20.4128 25.5701 29.9503 28.6749C31.4071 29.3778 33.1111 28.3033 33.086 26.67C33.086 26.67 33.0859 26.67 33.0859 26.6699L33.0188 22.2478L35.2606 21.084L35.2607 21.0839C35.5394 20.939 35.7127 20.6495 35.7079 20.3353L35.6667 17.6182L35.5167 17.6205L35.6667 17.6182C35.6619 17.3038 35.4788 17.0195 35.1969 16.8836L35.1968 16.8835L32.921 15.7884L32.8464 10.8687C32.8347 10.0901 32.4237 9.39267 31.7487 9.00489L14.8703 27.0655ZM30.9225 10.443L30.9205 10.4418C30.8415 10.3949 30.6353 10.3075 30.3979 10.4413C30.3979 10.4414 30.3978 10.4414 30.3978 10.4414L30.9225 10.443ZM30.9225 10.443C31.0039 10.4896 31.1838 10.6227 31.1879 10.8935L31.3378 10.8913L31.1879 10.8935L31.4275 26.6952L31.4275 26.6952C31.4337 27.0959 31.0084 27.3585 30.6524 27.1716M30.9225 10.443L30.1241 10.5623L30.3745 27.0689C30.3944 27.0753 30.4127 27.0811 30.4297 27.0866C30.5297 27.1184 30.5848 27.136 30.6524 27.1716M30.6524 27.1716L30.5824 27.3043M30.6524 27.1716C30.6523 27.1716 30.6522 27.1715 30.6521 27.1715L30.5824 27.3043M30.5824 27.3043C31.0394 27.5444 31.5854 27.2074 31.5775 26.6929L30.2262 27.1781C30.3006 27.203 30.3556 27.2205 30.3988 27.2343C30.4884 27.2628 30.5271 27.2751 30.5824 27.3043ZM12.0807 32.2434L12.0806 32.2434C11.4102 32.254 10.8639 31.7137 10.8541 31.0534L10.8541 31.0534L10.7536 24.4101L13.1707 24.3734C13.2647 30.5922 13.2711 31.0172 13.2712 31.0172C13.2712 31.0172 13.2709 30.9931 13.2713 31.0172C13.2817 31.6838 12.7496 32.2331 12.0807 32.2434ZM6.60366 19.5672L6.60366 19.5672C6.59478 18.9973 6.73587 18.4347 7.01155 17.9401C7.57533 16.9284 8.6444 16.2892 9.80067 16.2716L15.764 16.1811L15.8625 22.6737L9.89913 22.7644C9.89912 22.7644 9.89911 22.7644 9.8991 22.7644C8.10918 22.7913 6.63088 21.357 6.60366 19.5672ZM14.8452 25.4068L14.8292 24.3482L15.8877 24.3322L15.9038 25.3907L14.8452 25.4068ZM32.9491 17.6425L34.016 18.1559L34.0416 19.848L32.9908 20.3934L32.9491 17.6425ZM17.4183 15.8873L28.4756 11.2534L28.7073 26.5259L17.5245 22.8852L17.4183 15.8873Z" fill="white" stroke="#CC0200" stroke-width="0.3"/>
<path d="M39.7444 17.557L39.7445 17.557L44.0765 17.5597C44.5346 17.5598 44.9058 17.9313 44.9052 18.3895C44.9051 18.8475 44.5336 19.2185 44.0754 19.2183L44.0754 19.2183L39.7436 19.2157L39.7444 17.557ZM39.7444 17.557C39.2866 17.5569 38.9148 17.9277 38.9147 18.3858M39.7444 17.557L38.9147 18.3858M38.9147 18.3858C38.9147 18.3858 38.9147 18.3859 38.9147 18.3859L39.0647 18.3859L38.9147 18.3858Z" fill="white" stroke="#CC0200" stroke-width="0.3"/>
<path d="M37.3036 22.8533L37.3036 22.8533C36.9749 22.5344 36.9666 22.0094 37.2856 21.6806C37.6046 21.3517 38.1297 21.3439 38.4584 21.6629C38.4584 21.6629 38.4584 21.6629 38.4585 21.6629L40.4088 23.5548L37.3036 22.8533ZM37.3036 22.8533L39.2542 24.7454C39.2542 24.7454 39.2543 24.7454 39.2543 24.7454C39.5852 25.0668 40.1102 25.0537 40.4268 24.7277L40.4269 24.7276M37.3036 22.8533L40.4269 24.7276M40.4269 24.7276C40.7459 24.3988 40.7378 23.8737 40.4089 23.5549L40.4269 24.7276Z" fill="white" stroke="#CC0200" stroke-width="0.3"/>
<path d="M37.1692 13.9954L37.1692 13.9954L39.062 12.0451C39.062 12.0451 39.062 12.0451 39.062 12.0451C39.381 11.7163 39.906 11.7085 40.2346 12.0273L37.1692 13.9954ZM37.1692 13.9954C36.8502 14.3242 36.8582 14.849 37.1868 15.1682L37.1869 15.1683M37.1692 13.9954L37.1869 15.1683M37.1869 15.1683C37.5155 15.4867 38.0402 15.4796 38.3596 15.1506L38.3597 15.1506M37.1869 15.1683L38.3597 15.1506M38.3597 15.1506L40.2523 13.2002L40.2523 13.2002M38.3597 15.1506L40.2523 13.2002M40.2523 13.2002C40.5712 12.8714 40.5635 12.3464 40.2346 12.0274L40.2523 13.2002Z" fill="white" stroke="#CC0200" stroke-width="0.3"/>
</svg>
