<svg width="26" height="22" viewBox="0 0 26 22" fill="none" xmlns="http://www.w3.org/2000/svg">
<path fill-rule="evenodd" clip-rule="evenodd" d="M5.0001 5.60771V18.1751C5.0001 18.7002 5.00088 19.0392 5.02403 19.2972C5.04622 19.5446 5.0839 19.6364 5.10909 19.6814C5.20496 19.8528 5.35794 19.9921 5.5461 20.0794C5.59555 20.1023 5.69626 20.1366 5.96792 20.1568C6.25126 20.1779 6.62353 20.1786 7.20007 20.1786H18.7999C19.3765 20.1786 19.7487 20.1779 20.0321 20.1568C20.3037 20.1366 20.4045 20.1023 20.4539 20.0794C20.6421 19.9921 20.795 19.8528 20.8909 19.6814C20.9161 19.6364 20.9538 19.5446 20.976 19.2972C20.9991 19.0392 20.9999 18.7002 20.9999 18.1751V5.60771H22.9999V18.2103C22.9999 18.6903 22.9999 19.1045 22.9693 19.4456C22.937 19.8056 22.8657 20.1637 22.6729 20.5083C22.3853 21.0223 21.9263 21.4403 21.3619 21.7022C20.9835 21.8778 20.5903 21.9427 20.1949 21.9722C19.8204 22 19.3656 22 18.8385 22H7.16151C6.63437 22 6.17962 22 5.80506 21.9722C5.40972 21.9427 5.01651 21.8778 4.63813 21.7022C4.07365 21.4403 3.61472 21.0223 3.3271 20.5083C3.13431 20.1637 3.06299 19.8056 3.03069 19.4456C3.00009 19.1044 3.00011 18.6903 3.00012 18.2102L3.00013 5.60771H5.0001Z" fill="#CC0200"/>
<path fill-rule="evenodd" clip-rule="evenodd" d="M11.5681 13.8039C11.5787 13.8039 11.5894 13.8039 11.6 13.8039H14.4C14.4106 13.8039 14.4213 13.8039 14.4319 13.8039C14.6843 13.8038 14.93 13.8038 15.1382 13.8193C15.3668 13.8363 15.6365 13.8764 15.9079 14.0024C16.2843 14.177 16.5902 14.4556 16.782 14.7983C16.9203 15.0455 16.9643 15.2912 16.983 15.4993C17 15.6889 17 15.9127 17 16.1426C17 16.1523 17 16.1619 17 16.1716V22H9.00005V16.1716C9.00005 16.1619 9.00005 16.1523 9.00005 16.1426C9.00002 15.9127 8.99999 15.6889 9.017 15.4993C9.03567 15.2912 9.07974 15.0455 9.21804 14.7983C9.40978 14.4556 9.71574 14.177 10.0921 14.0024C10.3635 13.8764 10.6332 13.8363 10.8618 13.8193C11.07 13.8038 11.3157 13.8038 11.5681 13.8039ZM11.0115 15.6356C11.0111 15.6394 11.0107 15.6434 11.0103 15.6477C11.0008 15.7538 11 15.9016 11 16.1716V20.1786H15V16.1716C15 15.9016 14.9992 15.7538 14.9897 15.6477C14.9893 15.6434 14.9889 15.6394 14.9885 15.6356C14.9844 15.6353 14.98 15.635 14.9753 15.6346C14.8588 15.6259 14.6965 15.6252 14.4 15.6252H11.6C11.3035 15.6252 11.1412 15.6259 11.0247 15.6346C11.02 15.635 11.0156 15.6353 11.0115 15.6356Z" fill="#CC0200"/>
<path fill-rule="evenodd" clip-rule="evenodd" d="M0.136382 7.88795C0.414659 8.32239 1.02697 8.46913 1.50402 8.21571L13 2.1086L24.496 8.21571C24.973 8.46913 25.5853 8.32239 25.8636 7.88795C26.1419 7.4535 25.9808 6.89588 25.5037 6.64245L13 0L0.496286 6.64245C0.0192396 6.89588 -0.141895 7.4535 0.136382 7.88795Z" fill="#CC0200"/>
</svg>
