<svg width="71" height="72" viewBox="0 0 71 72" fill="none" xmlns="http://www.w3.org/2000/svg">
<circle cx="35.5" cy="35.5" r="27.5" fill="#CC0200"/>
<circle cx="35" cy="36" r="34" stroke="#E0DFDF" stroke-width="2"/>
<path d="M34.5 2C46 2 69 9.2 69 38" stroke="#CC0200" stroke-width="2.5" stroke-linecap="round"/>
<path d="M69 36C69 47.5 61.8 70.5 33 70.5" stroke="#CC0200" stroke-width="2.5" stroke-linecap="round"/>
<path d="M45.6894 34.7443L37.9692 27.0241L37.9661 27.021L37.9661 27.021C37.6854 26.7304 37.6855 26.2696 37.9661 25.979L37.9662 25.9789C38.2539 25.6811 38.7287 25.6727 39.0267 25.9606L39.0298 25.9636L39.0298 25.9636L48.0295 34.9633L45.6894 34.7443ZM45.6894 34.7443H24.5H24.5C24.0858 34.7444 23.75 35.0802 23.75 35.4944C23.75 35.9086 24.0858 36.2444 24.5 36.2444H45.6894L37.9716 43.9622C37.6754 44.2502 37.6677 44.7237 37.9549 45.0211L37.9549 45.0211C38.2427 45.319 38.7174 45.3272 39.0154 45.0395L39.0155 45.0394C39.0211 45.034 39.0267 45.0284 39.0321 45.0228L48.0308 36.0242L48.0312 36.0237C48.1004 35.9542 48.1554 35.8717 48.193 35.7809C48.3089 35.5005 48.2444 35.1779 48.0297 34.9636L45.6894 34.7443Z" fill="#F9F9FC" stroke="#F9F9FC" stroke-width="0.5"/>
<path d="M46.4395 35.4948L37.9695 43.9638C37.9695 43.9638 37.9695 43.9638 37.9695 43.9638L37.9693 43.964L38.1461 44.1408L46.4395 35.4948ZM46.4395 35.4948L37.9693 27.0256L37.9662 27.0226L37.9662 27.0225C37.6784 26.7246 37.6868 26.2498 37.9846 25.962L37.9847 25.962C38.2753 25.6813 38.7361 25.6813 39.0267 25.962L39.0298 25.965L39.0298 25.965L48.0298 34.965L48.0298 34.9651C48.3226 35.2579 48.3226 35.7327 48.0298 36.0256L48.0298 36.0256L39.0298 45.0256L39.0296 45.0258C38.8892 45.1659 38.6989 45.2446 38.5005 45.2448C38.5004 45.2448 38.5002 45.2448 38.5001 45.2448V44.9948L46.4395 35.4948Z" fill="#F9F9FC" stroke="#F9F9FC" stroke-width="0.5"/>
<path d="M48.25 35.4939V35.4938C48.25 35.0796 47.9142 34.7438 47.5 34.7438H24.5C24.0858 34.7438 23.75 35.0796 23.75 35.4938C23.75 35.9081 24.0858 36.2438 24.5 36.2438H47.4999C47.9141 36.2438 48.2499 35.9081 48.25 35.4939Z" fill="#F9F9FC" stroke="#F9F9FC" stroke-width="0.5"/>
</svg>
