<svg width="70" height="70" viewBox="0 0 70 70" fill="none" xmlns="http://www.w3.org/2000/svg">
<circle cx="35.5" cy="34.5" r="27.5" fill="#CC0200"/>
<circle cx="35" cy="35" r="34" stroke="#CC0200" stroke-width="2"/>
<path d="M45.6894 33.7443L37.9692 26.0241L37.9661 26.021L37.9661 26.021C37.6854 25.7304 37.6855 25.2696 37.9661 24.979L37.9662 24.9789C38.2539 24.6811 38.7287 24.6727 39.0267 24.9606L39.0298 24.9636L39.0298 24.9636L48.0295 33.9633L45.6894 33.7443ZM45.6894 33.7443H24.5H24.5C24.0858 33.7444 23.75 34.0802 23.75 34.4944C23.75 34.9086 24.0858 35.2444 24.5 35.2444H45.6894L37.9716 42.9622C37.6754 43.2502 37.6677 43.7237 37.9549 44.0211L37.9549 44.0211C38.2427 44.319 38.7174 44.3272 39.0154 44.0395L39.0155 44.0394C39.0211 44.034 39.0267 44.0284 39.0321 44.0228L48.0308 35.0242L48.0312 35.0237C48.1004 34.9542 48.1554 34.8717 48.193 34.7809C48.3089 34.5005 48.2444 34.1779 48.0297 33.9636L45.6894 33.7443Z" fill="#F9F9FC" stroke="#F9F9FC" stroke-width="0.5"/>
<path d="M46.4395 34.4948L37.9695 42.9638C37.9695 42.9638 37.9695 42.9638 37.9695 42.9638L37.9693 42.964L38.1461 43.1408L46.4395 34.4948ZM46.4395 34.4948L37.9693 26.0256L37.9662 26.0226L37.9662 26.0225C37.6784 25.7246 37.6868 25.2498 37.9846 24.962L37.9847 24.962C38.2753 24.6813 38.7361 24.6813 39.0267 24.962L39.0298 24.965L39.0298 24.965L48.0298 33.965L48.0298 33.9651C48.3226 34.2579 48.3226 34.7327 48.0298 35.0256L48.0298 35.0256L39.0298 44.0256L39.0296 44.0258C38.8892 44.1659 38.6989 44.2446 38.5005 44.2448C38.5004 44.2448 38.5002 44.2448 38.5001 44.2448V43.9948L46.4395 34.4948Z" fill="#F9F9FC" stroke="#F9F9FC" stroke-width="0.5"/>
<path d="M48.25 34.4939V34.4938C48.25 34.0796 47.9142 33.7438 47.5 33.7438H24.5C24.0858 33.7438 23.75 34.0796 23.75 34.4938C23.75 34.9081 24.0858 35.2438 24.5 35.2438H47.4999C47.9141 35.2438 48.2499 34.9081 48.25 34.4939Z" fill="#F9F9FC" stroke="#F9F9FC" stroke-width="0.5"/>
</svg>
